<?xml version="1.0" encoding="UTF-8" standalone="no"?>
<!-- Created with Inkscape (http://www.inkscape.org/) -->

<svg
   width="360"
   height="360"
   viewBox="0 0 95.25 95.25"
   version="1.1"
   id="svg1"
   xml:space="preserve"
   xmlns:xlink="http://www.w3.org/1999/xlink"
   xmlns="http://www.w3.org/2000/svg"
   xmlns:svg="http://www.w3.org/2000/svg"><defs
     id="defs1"><linearGradient
       id="linearGradient8"><stop
         style="stop-color:#ff7f43;stop-opacity:1;"
         offset="0"
         id="stop8" /><stop
         style="stop-color:#ff2979;stop-opacity:1;"
         offset="1"
         id="stop9" /></linearGradient><linearGradient
       xlink:href="#linearGradient8"
       id="linearGradient9"
       x1="47.588257"
       y1="80.381424"
       x2="47.588257"
       y2="14.904968"
       gradientUnits="userSpaceOnUse" /></defs><g
     id="layer1"><g
       id="g6"><path
         style="fill:url(#linearGradient9);fill-opacity:1"
         d="m 42.623141,94.694235 c -1.152163,-0.121436 -2.217773,-0.343724 -2.368021,-0.493972 -0.150249,-0.150249 -0.470936,-0.27318 -0.712639,-0.27318 -1.42781,0 -9.508874,-3.411613 -9.508874,-4.014397 0,-0.120415 -0.132876,-0.218936 -0.295281,-0.218936 -0.406727,0 -2.742452,-1.71526 -4.310017,-3.1651 -2.063371,-1.90841 -2.088332,-1.934289 -3.19991,-3.317588 -0.582083,-0.724372 -1.266692,-1.549083 -1.521354,-1.832691 -0.254661,-0.283608 -0.463021,-0.603759 -0.463021,-0.711446 0,-0.107687 -0.148828,-0.357731 -0.330729,-0.555653 -0.440555,-0.479359 -0.926625,-1.33713 -1.841561,-3.249814 -0.417661,-0.873125 -0.875556,-1.797276 -1.017546,-2.053669 -0.320805,-0.579282 -0.819984,-2.082151 -1.602794,-4.825497 -0.538801,-1.888226 -0.603697,-2.687769 -0.601303,-7.408334 0.0024,-4.666644 0.07386,-5.557301 0.60529,-7.540625 0.909963,-3.396028 1.270252,-4.381379 2.526302,-6.909166 1.11074,-2.235351 1.429926,-2.734208 3.638218,-5.686186 l 1.010316,-1.35056 0.124506,-9.629648 c 0.06848,-5.296306 0.198009,-10.284492 0.287847,-11.084856 0.174328,-1.553075 0.840003,-4.192719 1.167664,-4.630209 0.108988,-0.14552 0.349994,-0.740833 0.535567,-1.322916 0.185573,-0.582084 0.423221,-1.117865 0.528105,-1.190625 0.104885,-0.07276 0.449088,-0.641933 0.764896,-1.264827 0.575774,-1.135646 0.802388,-1.452367 2.275014,-3.1796126 1.581487,-1.8549286 4.430818,-4.2861691 5.953125,-5.0796059 0.363802,-0.1896161 0.720989,-0.4162293 0.79375,-0.5035849 0.226593,-0.272046 1.909826,-1.0047731 3.704166,-1.612458 0.945886,-0.3203408 2.005707,-0.71963511 2.355159,-0.8873207 0.865178,-0.41515831 11.703135,-0.42283102 12.222405,-0.008653 0.204267,0.16292654 0.832536,0.3794307 1.396154,0.4811205 0.563618,0.1016897 1.218462,0.2760802 1.455209,0.3875344 1.928298,0.9077926 5.218257,2.5550419 5.32524,2.6662938 0.07276,0.075664 0.724767,0.6138212 1.448903,1.1959045 1.772216,1.4245623 3.466605,3.1872112 4.4509,4.6302089 0.446681,0.654843 0.892586,1.250156 0.990899,1.322916 0.383699,0.28397 2.082379,3.900057 2.361505,5.027084 0.162182,0.654843 0.404442,1.42875 0.538355,1.719791 0.621742,1.351276 0.792771,4.290695 0.792771,13.625134 v 9.956072 l 0.824427,0.777106 c 1.302783,1.228004 2.853515,3.441077 3.948585,5.635086 3.284802,6.58121 4.281018,14.261679 2.746122,21.17162 -0.375622,1.691011 -0.851872,3.42028 -1.058333,3.84282 -0.206462,0.42254 -0.375385,0.875773 -0.375385,1.007185 0,0.440342 -2.461288,5.236019 -2.687285,5.236019 -0.122722,0 -0.223131,0.16385 -0.223131,0.364111 0,0.439648 -3.498151,4.788368 -4.59261,5.709295 -0.428618,0.360657 -1.088671,0.965212 -1.466785,1.343454 -0.811394,0.811669 -3.095734,2.637307 -3.299946,2.637307 -0.07819,0 -0.593931,0.307487 -1.146097,0.683305 -1.198888,0.815994 -5.097339,2.681474 -6.10774,2.922665 -0.394366,0.09414 -0.836093,0.258282 -0.981614,0.364763 -0.14552,0.106481 -0.740833,0.279312 -1.322916,0.384069 -0.582084,0.104757 -1.177396,0.286196 -1.322917,0.403198 -0.796561,0.640453 -8.256812,0.945188 -12.413591,0.507068 z M 70.063863,81.934819 c 0.774166,-0.816498 1.509327,-1.741507 1.509327,-1.899095 0,-0.06984 -10.834687,-0.127753 -24.077083,-0.128701 -13.242395,-9.48e-4 -24.077083,0.05142 -24.077083,0.11637 0,0.06495 0.267891,0.412348 0.595313,0.771993 0.327422,0.359645 0.802506,0.90156 1.055743,1.204257 C 25.529633,82.54895 25.572433,82.55 47.505544,82.55 H 69.480577 Z M 53.555159,77.57218 c 0.156165,-0.291796 0.167416,-0.88812 0.0287,-1.521354 -0.125473,-0.572798 -0.26433,-1.577232 -0.308572,-2.232076 l -0.08044,-1.190625 11.360145,-0.132292 11.360144,-0.132291 0.183902,-0.661459 c 0.479009,-1.722908 1.47194,-1.5875 -11.640919,-1.5875 H 52.580556 L 52.436305,69.519271 C 52.207314,68.574244 51.642002,64.50476 51.618516,63.632292 l -0.02137,-0.79375 12.898437,-0.06866 12.898437,-0.06866 V 61.513108 60.325 H 65.986082 54.57814 l 0.179014,-0.595312 c 0.750071,-2.49436 0.92512,-3.719049 0.682093,-4.772117 -0.518932,-2.248604 -1.541554,-2.040904 10.048527,-2.040904 5.675312,0 10.318749,-0.06115 10.318749,-0.135882 0,-0.07474 -0.119011,-0.342626 -0.264469,-0.595313 -0.145458,-0.252686 -0.380636,-0.786852 -0.522618,-1.187034 L 74.761287,50.270833 H 63.997942 53.234597 L 52.34785,49.594478 c -1.108707,-0.845652 -3.560745,-1.704895 -4.865293,-1.704895 -1.45124,0 -4.294862,0.954319 -5.118714,1.717839 L 41.64801,50.270833 H 30.967597 20.287183 l -0.550746,0.891126 c -1.154705,1.868352 -1.710958,1.767823 9.701858,1.753378 9.684378,-0.01226 10.247724,0.01308 10.164546,0.457197 -0.394992,2.10901 -0.325512,3.990411 0.196046,5.308615 0.304409,0.769372 0.55347,1.452716 0.55347,1.518544 0,0.06583 -5.149453,0.150716 -11.443229,0.188642 l -11.443229,0.06896 -0.08136,1.124479 -0.08136,1.124479 H 30.308526 43.31387 l -0.172047,1.918229 c -0.09463,1.055026 -0.277844,2.394479 -0.407152,2.976563 -0.129308,0.582083 -0.303777,1.385755 -0.387709,1.785937 l -0.152603,0.727604 H 30.395996 18.597633 l 0.185757,0.990173 c 0.102167,0.544595 0.241507,1.080376 0.309644,1.190625 0.06814,0.110249 5.16999,0.200452 11.337448,0.200452 6.267392,0 11.277764,0.10388 11.359115,0.235509 0.08005,0.12953 0.0096,1.197005 -0.156611,2.372168 -0.239842,1.695972 -0.232675,2.220389 0.03475,2.542617 0.283571,0.341681 1.230974,0.405956 5.98375,0.405956 5.182826,0 5.66794,-0.03943 5.903672,-0.479903 z M 69.035318,42.465625 c -0.238372,-0.363802 -0.509007,-0.66468 -0.601412,-0.668617 -0.0924,-0.0039 -0.76332,-0.53862 -1.490924,-1.188185 -0.727604,-0.649564 -1.403709,-1.182124 -1.502455,-1.183466 -0.09875,-0.0013 -0.336872,-0.157064 -0.529167,-0.346048 -0.612044,-0.601505 -3.453215,-2.130475 -5.641295,-3.035851 -4.874441,-2.016929 -10.151811,-2.778778 -15.249106,-2.201386 -1.653929,0.187348 -3.364331,0.444234 -3.800893,0.570857 -0.436563,0.126623 -1.508125,0.43393 -2.38125,0.682904 -2.037158,0.580901 -5.206864,2.063356 -6.810308,3.185146 -0.689731,0.482545 -1.334587,0.877354 -1.433013,0.877354 -0.09842,0 -0.367537,0.179763 -0.598026,0.399474 -0.230488,0.21971 -0.990768,0.856844 -1.689509,1.415851 -0.698742,0.559008 -1.449634,1.272214 -1.668649,1.584902 l -0.398209,0.568523 h 22.11381 22.11381 z M 27.133185,37.317003 c 0.503826,-0.430649 1.046422,-0.787836 1.20577,-0.79375 0.159347,-0.0059 0.486881,-0.228612 0.727854,-0.494884 0.240973,-0.266272 1.211926,-0.872962 2.157674,-1.348201 l 1.719541,-0.864071 v -4.846232 c 0,-3.124598 0.134572,-5.535955 0.378808,-6.787736 1.013461,-5.194295 4.462443,-9.144733 9.601332,-10.997295 1.87824,-0.677102 6.802736,-0.644338 9.003714,0.0599 0.909505,0.291013 1.653646,0.618435 1.653646,0.727604 0,0.10917 0.148828,0.198774 0.330729,0.199121 0.498813,9.51e-4 3.409192,2.047086 3.86673,2.718495 0.220446,0.323491 0.556828,0.683381 0.747515,0.799754 0.190687,0.116373 0.541908,0.592623 0.780491,1.058333 0.238583,0.46571 0.515981,0.906277 0.616441,0.979037 0.100459,0.07276 0.523981,0.96573 0.941159,1.984375 0.74689,1.823723 0.760002,1.946132 0.856266,7.993827 l 0.09776,6.141743 1.239267,0.597119 c 1.517012,0.730945 5.075724,3.142698 5.075724,3.439838 0,0.118808 0.229205,0.216015 0.509346,0.216015 0.494035,0 0.507083,-0.264437 0.43407,-8.797396 -0.07523,-8.792096 -0.07571,-8.798671 -0.796512,-10.914062 -0.807352,-2.369397 -2.042683,-4.932546 -2.891312,-5.999092 -0.309586,-0.389083 -0.920071,-1.204736 -1.356634,-1.812562 -1.474571,-2.053044 -7.587266,-6.0789713 -9.229898,-6.0789713 -0.235066,0 -0.427393,-0.1033857 -0.427393,-0.2297459 0,-0.2292392 -0.602355,-0.3536243 -4.101042,-0.8468573 -2.31926,-0.3269567 -3.44995,-0.3286786 -5.963033,-0.00908 C 42.010372,3.7048407 40.964654,3.916357 40.220066,4.2397412 39.929024,4.3661444 39.036055,4.7340477 38.235691,5.057304 37.435326,5.3805604 36.592514,5.8036582 36.362774,5.9975214 36.133034,6.1913846 35.824066,6.35 35.676177,6.35 c -0.147889,0 -0.484389,0.238125 -0.747778,0.5291667 -0.263389,0.2910416 -0.5807,0.5291666 -0.705135,0.5291666 -0.248699,0 -2.347308,1.8756552 -3.233103,2.8896207 -0.307823,0.352365 -0.763098,0.85344 -1.011722,1.113502 -0.248623,0.260061 -0.693406,0.94595 -0.988406,1.524198 -0.295,0.578248 -0.63567,1.112734 -0.757044,1.187747 -0.121375,0.07501 -0.44999,0.827233 -0.730258,1.671598 -0.280267,0.844365 -0.596719,1.600122 -0.703227,1.679461 -0.106508,0.07934 -0.374886,1.091369 -0.596395,2.248958 -0.306233,1.60035 -0.402755,4.054345 -0.402789,10.240644 -2.5e-5,4.474766 0.09375,8.135938 0.208386,8.135938 0.114638,0 0.620653,-0.352349 1.124479,-0.782997 z m 11.291052,-5.526726 c 4.713837,-1.454336 14.269848,-1.331092 18.540649,0.239118 0.769444,0.282895 1.454053,0.514355 1.521355,0.514355 0.0673,0 0.122366,-2.214097 0.122366,-4.920216 0,-5.634404 -0.250298,-6.911275 -1.800619,-9.185679 -1.00043,-1.467685 -2.411396,-2.827438 -2.933929,-2.827438 -0.160894,0 -0.292535,-0.116794 -0.292535,-0.259543 0,-0.142748 -0.297656,-0.334249 -0.661459,-0.425558 -0.363802,-0.09131 -0.661458,-0.253981 -0.661458,-0.361496 0,-0.107514 -1.160859,-0.395816 -2.579687,-0.640671 -2.35497,-0.40641 -2.760601,-0.409881 -4.656512,-0.03984 -2.693378,0.525689 -3.538606,0.979958 -5.72977,3.079472 -2.594615,2.48609 -3.166993,4.423748 -3.17075,10.733855 l -0.0029,4.810176 0.727604,-0.227143 c 0.400183,-0.124929 1.110106,-0.345155 1.577609,-0.489391 z"
         id="path6" /></g></g></svg>
